{
  "source": "C:\\Users\\Peter\\Desktop\\stuff\\MIUN\\quantitative_research\\video_compression\\videos\\BVI-HD\\BVI-HD_CDVL_videos\\ORIG\\Lightreef_1920x1080_30fps.mp4",
  "output": "C:\\Users\\Peter\\Desktop\\stuff\\MIUN\\quantitative_research\\video_compression\\compressed_videos\\BVI-HD\\av1\\2\\Lightreef_1920x1080_30fps_av1.mkv",
  "codec": "av1",
  "ok": "Input #0, mov,mp4,m4a,3gp,3g2,mj2, from 'C:\\Users\\Peter\\Desktop\\stuff\\MIUN\\quantitative_research\\video_compression\\videos\\BVI-HD\\BVI-HD_CDVL_videos\\ORIG\\Lightreef_1920x1080_30fps.mp4':\n  Metadata:\n    major_brand     : isom\n    minor_version   : 512\n    compatible_brands: isomiso2avc1mp41\n    encoder         : Lavf54.28.101\n  Duration: 00:00:05.00, start: 0.000000, bitrate: 361719 kb/s\n  Stream #0:0[0x1](und): Video: h264 (High 4:4:4 Predictive) (avc1 / 0x31637661), yuv420p(progressive), 1920x1080, 361715 kb/s, 30 fps, 30 tbr, 30 tbn (default)\n    Metadata:\n      handler_name    : VideoHandler\n      vendor_id       : [0][0][0][0]\n[out#0/matroska @ 000001c098019700] Codec AVOption b:a (set bitrate (in bits/s)) has not been used for any stream. The most likely reason is either wrong type (e.g. a video option with no video streams) or that it is a private option of some decoder which was not actually used for any stream.\nStream mapping:\n  Stream #0:0 -> #0:0 (h264 (native) -> av1 (libsvtav1))\nPress [q] to stop, [?] for help\nSvt[info]: -------------------------------------------\nSvt[info]: SVT [version]:\tSVT-AV1 Encoder Lib v3.1.0-19-g6ecfe8ec\nSvt[info]: SVT [build]  :\tGCC 15.2.0\t 64 bit\nSvt[info]: LIB Build date: Aug 17 2025 11:37:13\nSvt[info]: -------------------------------------------\nSvt[info]: Level of Parallelism: 5\nSvt[info]: Number of PPCS 93\nSvt[info]: [asm level on system : up to avx2]\nSvt[info]: [asm level selected : up to avx2]\nSvt[info]: -------------------------------------------\nSvt[info]: SVT [config]: main profile\ttier (auto)\tlevel (auto)\nSvt[info]: SVT [config]: width / height / fps numerator / fps denominator \t\t: 1920 / 1080 / 30 / 1\nSvt[info]: SVT [config]: bit-depth / color format \t\t\t\t\t: 8 / YUV420\nSvt[info]: SVT [config]: preset / tune / pred struct \t\t\t\t\t: 4 / PSNR / random access\nSvt[info]: SVT [config]: gop size / mini-gop size / key-frame type \t\t\t: 161 / 16 / key frame\nSvt[info]: SVT [config]: BRC mode / target bitrate (kbps)\t\t\t\t: VBR / 2000 \nSvt[info]: SVT [config]: AQ mode / Variance Boost \t\t\t\t\t: 2 / 0\nSvt[info]: SVT [config]: sharpness / luminance-based QP bias \t\t\t\t: 0 / 0\nSvt[info]: SVT [config]: QP scale compress strength \t\t\t\t\t: 0\nSvt[info]: -------------------------------------------\nOutput #0, matroska, to 'C:\\Users\\Peter\\Desktop\\stuff\\MIUN\\quantitative_research\\video_compression\\compressed_videos\\BVI-HD\\av1\\2\\Lightreef_1920x1080_30fps_av1.mkv':\n  Metadata:\n    major_brand     : isom\n    minor_version   : 512\n    compatible_brands: isomiso2avc1mp41\n    encoder         : Lavf62.3.100\n  Stream #0:0(und): Video: av1 (AV01 / 0x31305641), yuv420p(tv, progressive), 1920x1080, q=2-31, 2000 kb/s, 30 fps, 1k tbn (default)\n    Metadata:\n      encoder         : Lavc62.11.100 libsvtav1\n      handler_name    : VideoHandler\n      vendor_id       : [0][0][0][0]\n    Side data:\n      cpb: bitrate max/min/avg: 0/0/2000000 buffer size: 2000000 vbv_delay: N/A\nframe=    0 fps=0.0 q=0.0 size=       0KiB time=N/A bitrate=N/A speed=N/A elapsed=0:00:01.05    \nframe=    0 fps=0.0 q=0.0 size=       0KiB time=N/A bitrate=N/A speed=N/A elapsed=0:00:01.62    \nframe=    0 fps=0.0 q=0.0 size=       0KiB time=N/A bitrate=N/A speed=N/A elapsed=0:00:02.24    \nframe=    0 fps=0.0 q=0.0 size=       0KiB time=N/A bitrate=N/A speed=N/A elapsed=0:00:02.86    \nframe=    0 fps=0.0 q=0.0 size=       0KiB time=N/A bitrate=N/A speed=N/A elapsed=0:00:03.49    \nframe=    0 fps=0.0 q=0.0 size=       0KiB time=N/A bitrate=N/A speed=N/A elapsed=0:00:04.13    \nframe=    0 fps=0.0 q=0.0 size=       0KiB time=N/A bitrate=N/A speed=N/A elapsed=0:00:04.75    \nframe=    0 fps=0.0 q=0.0 size=       0KiB time=N/A bitrate=N/A speed=N/A elapsed=0:00:05.34    \nframe=    0 fps=0.0 q=0.0 size=       0KiB time=N/A bitrate=N/A speed=N/A elapsed=0:00:05.87    \nframe=    0 fps=0.0 q=0.0 size=       0KiB time=N/A bitrate=N/A speed=N/A elapsed=0:00:06.41    \nframe=    0 fps=0.0 q=0.0 size=       0KiB time=N/A bitrate=N/A speed=N/A elapsed=0:00:06.95    \nframe=    0 fps=0.0 q=0.0 size=       0KiB time=N/A bitrate=N/A speed=N/A elapsed=0:00:07.53    \nframe=    1 fps=0.1 q=31.0 size=       1KiB time=00:00:00.00 bitrate=N/A speed=   0x elapsed=0:00:08.09    \nframe=    1 fps=0.1 q=31.0 size=       1KiB time=00:00:00.00 bitrate=N/A speed=   0x elapsed=0:00:08.63    \nframe=    1 fps=0.1 q=31.0 size=       1KiB time=00:00:00.00 bitrate=N/A speed=   0x elapsed=0:00:09.17    \nframe=    1 fps=0.1 q=31.0 size=       1KiB time=00:00:00.00 bitrate=N/A speed=   0x elapsed=0:00:09.69    \nframe=    1 fps=0.1 q=31.0 size=       1KiB time=00:00:00.00 bitrate=N/A speed=   0x elapsed=0:00:10.25    \nframe=    3 fps=0.3 q=49.0 size=       1KiB time=00:00:00.06 bitrate=  85.6kbits/s speed=0.00617x elapsed=0:00:10.79    \nframe=    6 fps=0.5 q=50.0 size=       1KiB time=00:00:00.16 bitrate=  34.2kbits/s speed=0.0147x elapsed=0:00:11.35    \nframe=    9 fps=0.8 q=43.0 size=       1KiB time=00:00:00.26 bitrate=  21.4kbits/s speed=0.0223x elapsed=0:00:11.93    \nframe=   13 fps=1.0 q=47.0 size=       1KiB time=00:00:00.40 bitrate=  14.3kbits/s speed=0.032x elapsed=0:00:12.51    \nframe=   16 fps=1.2 q=49.0 size=       1KiB time=00:00:00.50 bitrate=  11.4kbits/s speed=0.0382x elapsed=0:00:13.09    \nframe=   19 fps=1.4 q=49.0 size=       1KiB time=00:00:00.60 bitrate=   9.5kbits/s speed=0.0439x elapsed=0:00:13.65    \nframe=   23 fps=1.6 q=49.0 size=       1KiB time=00:00:00.73 bitrate=   7.8kbits/s speed=0.0517x elapsed=0:00:14.18    \nframe=   25 fps=1.7 q=43.0 size=       1KiB time=00:00:00.80 bitrate=   7.1kbits/s speed=0.0542x elapsed=0:00:14.75    \nframe=   31 fps=2.0 q=48.0 size=       1KiB time=00:00:00.96 bitrate=   5.9kbits/s speed=0.0628x elapsed=0:00:15.38    \nframe=   34 fps=2.1 q=51.0 size=       1KiB time=00:00:01.10 bitrate=   5.2kbits/s speed=0.0689x elapsed=0:00:15.96    \nframe=   38 fps=2.3 q=51.0 size=       1KiB time=00:00:01.23 bitrate=   4.6kbits/s speed=0.0747x elapsed=0:00:16.51    \nframe=   41 fps=2.4 q=44.0 size=       1KiB time=00:00:01.33 bitrate=   4.3kbits/s speed=0.0781x elapsed=0:00:17.07    \nframe=   45 fps=2.6 q=48.0 size=       1KiB time=00:00:01.46 bitrate=   3.9kbits/s speed=0.0833x elapsed=0:00:17.61    \nframe=   49 fps=2.7 q=36.0 size=       1KiB time=00:00:01.60 bitrate=   3.6kbits/s speed=0.0879x elapsed=0:00:18.19    \nframe=   53 fps=2.8 q=49.0 size=       1KiB time=00:00:01.73 bitrate=   3.3kbits/s speed=0.0924x elapsed=0:00:18.75    \nframe=   57 fps=3.0 q=45.0 size=       1KiB time=00:00:01.86 bitrate=   3.1kbits/s speed=0.0969x elapsed=0:00:19.27    \nframe=   57 fps=2.9 q=45.0 size=       1KiB time=00:00:01.86 bitrate=   3.1kbits/s speed=0.0943x elapsed=0:00:19.79    \nframe=   61 fps=3.0 q=49.0 size=       1KiB time=00:00:02.00 bitrate=   2.9kbits/s speed=0.0983x elapsed=0:00:20.34    \nframe=   65 fps=3.1 q=38.0 size=       1KiB time=00:00:02.13 bitrate=   2.7kbits/s speed=0.102x elapsed=0:00:20.94    \nframe=   69 fps=3.2 q=50.0 size=       1KiB time=00:00:02.26 bitrate=   2.5kbits/s speed=0.105x elapsed=0:00:21.52    \nframe=   73 fps=3.3 q=46.0 size=       1KiB time=00:00:02.40 bitrate=   2.4kbits/s speed=0.109x elapsed=0:00:22.07    \nframe=   75 fps=3.3 q=50.0 size=       1KiB time=00:00:02.46 bitrate=   2.3kbits/s speed=0.109x elapsed=0:00:22.59    \nframe=   79 fps=3.4 q=50.0 size=       1KiB time=00:00:02.53 bitrate=   2.3kbits/s speed=0.109x elapsed=0:00:23.15    \nframe=   81 fps=3.4 q=39.0 size=       1KiB time=00:00:02.66 bitrate=   2.1kbits/s speed=0.112x elapsed=0:00:23.74    \nframe=   85 fps=3.5 q=50.0 size=       1KiB time=00:00:02.80 bitrate=   2.0kbits/s speed=0.115x elapsed=0:00:24.31    \nframe=   89 fps=3.6 q=46.0 size=       1KiB time=00:00:02.93 bitrate=   1.9kbits/s speed=0.118x elapsed=0:00:24.85    \nframe=   93 fps=3.7 q=48.0 size=       1KiB time=00:00:03.06 bitrate=   1.9kbits/s speed=0.121x elapsed=0:00:25.43    \nframe=   97 fps=3.7 q=39.0 size=       1KiB time=00:00:03.13 bitrate=   1.8kbits/s speed=0.121x elapsed=0:00:25.97    \nframe=  101 fps=3.8 q=51.0 size=       1KiB time=00:00:03.33 bitrate=   1.7kbits/s speed=0.126x elapsed=0:00:26.53    \nframe=  105 fps=3.9 q=47.0 size=       1KiB time=00:00:03.46 bitrate=   1.6kbits/s speed=0.128x elapsed=0:00:27.04    \nframe=  107 fps=3.9 q=51.0 size=       1KiB time=00:00:03.46 bitrate=   1.6kbits/s speed=0.126x elapsed=0:00:27.56    \nframe=  109 fps=3.9 q=48.0 size=       1KiB time=00:00:03.60 bitrate=   1.6kbits/s speed=0.128x elapsed=0:00:28.14    \nframe=  113 fps=3.9 q=40.0 size=       1KiB time=00:00:03.73 bitrate=   1.5kbits/s speed=0.13x elapsed=0:00:28.75    \nframe=  117 fps=4.0 q=51.0 size=       1KiB time=00:00:03.86 bitrate=   1.5kbits/s speed=0.132x elapsed=0:00:29.31    \nframe=  121 fps=4.0 q=48.0 size=       1KiB time=00:00:03.93 bitrate=   1.5kbits/s speed=0.132x elapsed=0:00:29.88    \nframe=  121 fps=4.0 q=48.0 size=       1KiB time=00:00:04.00 bitrate=   1.4kbits/s speed=0.131x elapsed=0:00:30.50    \nframe=  123 fps=4.0 q=52.0 size=       1KiB time=00:00:04.06 bitrate=   1.4kbits/s speed=0.131x elapsed=0:00:31.08    \nframe=  125 fps=4.0 q=49.0 size=       1KiB time=00:00:04.13 bitrate=   1.4kbits/s speed=0.131x elapsed=0:00:31.61    \nframe=  129 fps=4.0 q=41.0 size=       1KiB time=00:00:04.26 bitrate=   1.3kbits/s speed=0.133x elapsed=0:00:32.16    \nframe=  133 fps=4.1 q=54.0 size=       1KiB time=00:00:04.40 bitrate=   1.3kbits/s speed=0.134x elapsed=0:00:32.71    \nframe=  137 fps=4.1 q=51.0 size=       1KiB time=00:00:04.53 bitrate=   1.3kbits/s speed=0.136x elapsed=0:00:33.26    \nframe=  141 fps=4.2 q=55.0 size=       1KiB time=00:00:04.66 bitrate=   1.2kbits/s speed=0.138x elapsed=0:00:33.80    \n[out#0/matroska @ 000001c098019700] video:1238KiB audio:0KiB subtitle:0KiB other streams:0KiB global headers:0KiB muxing overhead: 0.114154%\nframe=  150 fps=4.4 q=55.0 Lsize=    1239KiB time=00:00:04.96 bitrate=2044.1kbits/s speed=0.146x elapsed=0:00:33.99    \n",
  "seconds": 34.65597224235535,
  "probe_out": {}
}